<svg xmlns="http://www.w3.org/2000/svg" width="535" height="96" viewBox="0 0 535 96" role="img" aria-label="Sizer v2.0.1">
  <title>Sizer v2.0.1</title>
  <defs>
    <linearGradient id="g" x1="0" y1="0" x2="1" y2="1">
      <stop offset="0%" stop-color="#00FFCC"/>
      <stop offset="55%" stop-color="#1FB6FF"/>
      <stop offset="100%" stop-color="#8A2BE2"/>
    </linearGradient>
    <filter id="glow" x="-30%" y="-30%" width="160%" height="160%">
      <feGaussianBlur stdDeviation="3" result="b"/>
      <feMerge><feMergeNode in="b"/><feMergeNode in="SourceGraphic"/></feMerge>
    </filter>
  </defs>
  <g fill="url(#g)" filter="url(#glow)">
    <path d="M171 0 Q138 0 110 16 Q83 32 67 59 Q51 87 51 120 L51 148 L132 148 L132 120 Q132 104 143 92 Q155 81 171 81 L651 81 Q667 81 678 92 Q690 104 690 120 L690 281 Q690 297 678 308 Q667 319 651 319 L171 319 Q138 319 110 335 Q83 352 67 379 Q51 406 51 439 L51 600 Q51 633 67 660 Q83 688 110 704 Q138 720 171 720 L651 720 Q684 720 711 704 Q739 688 755 660 Q771 633 771 600 L771 572 L690 572 L690 600 Q690 616 678 627 Q667 639 651 639 L171 639 Q155 639 143 627 Q132 616 132 600 L132 439 Q132 423 143 412 Q155 401 171 401 L651 401 Q684 401 711 384 Q739 368 755 341 Q771 314 771 281 L771 120 Q771 87 755 59 Q739 32 711 16 Q684 0 651 0 L171 0 Z" transform="translate(36.00,70.0) scale(0.05104,-0.05104)"/>
    <path d="M66 0 L66 720 L148 720 L148 0 L66 0 Z" transform="translate(85.95,70.0) scale(0.05104,-0.05104)"/>
    <path d="M51 0 L51 0 L51 111 L679 639 L51 639 L51 720 L771 720 L771 609 L143 81 L771 81 L771 0 L51 0 Z" transform="translate(104.87,70.0) scale(0.05104,-0.05104)"/>
    <path d="M58 0 L58 720 L715 720 L715 639 L139 639 L139 401 L602 401 L602 319 L139 319 L139 81 L715 81 L715 0 L58 0 Z" transform="translate(154.78,70.0) scale(0.05104,-0.05104)"/>
    <path d="M664 0 L429 280 L535 280 L771 1 L771 0 L664 0 M56 0 L56 719 L656 719 Q689 719 716 702 Q744 686 760 659 Q776 632 776 599 L776 388 Q776 355 760 328 Q744 301 716 284 Q689 268 656 268 L137 268 L137 0 L56 0 M176 350 L656 350 Q672 350 683 361 Q695 372 695 388 L695 599 Q695 615 683 626 Q672 638 656 638 L176 638 Q160 638 148 626 Q137 615 137 599 L137 388 Q137 372 148 361 Q160 350 176 350 Z" transform="translate(201.87,70.0) scale(0.05104,-0.05104)"/>
    <path d="M452 0 L452 0 L35 720 L130 720 L499 79 L867 720 L962 720 L546 0 L452 0 Z" transform="translate(280.77,70.0) scale(0.05104,-0.05104)"/>
    <path d="M57 0 L57 0 L57 270 Q57 304 73 331 Q89 359 116 375 Q144 391 178 391 L663 391 Q679 391 690 402 Q702 414 702 430 L702 599 Q702 615 690 626 Q679 638 663 638 L178 638 Q162 638 150 626 Q139 615 139 599 L139 571 L57 571 L57 599 Q57 633 73 660 Q89 688 116 704 Q144 721 178 721 L663 721 Q696 721 723 704 Q751 688 767 660 Q784 633 784 599 L784 430 Q784 397 767 369 Q751 342 723 325 Q696 309 663 309 L178 309 Q162 309 150 297 Q139 286 139 270 L139 121 Q139 105 150 93 Q162 82 178 82 L784 82 L784 0 L57 0 Z" transform="translate(339.96,70.0) scale(0.05104,-0.05104)"/>
    <path d="M54 0 L54 0 L54 82 L136 82 L136 0 L54 0 Z" transform="translate(390.32,70.0) scale(0.05104,-0.05104)"/>
    <path d="M178 0 Q144 0 116 16 Q89 33 73 60 Q57 88 57 121 L57 598 Q57 632 73 659 Q89 687 116 703 Q144 720 178 720 L663 720 Q696 720 723 703 Q751 687 767 659 Q784 632 784 598 L784 121 Q784 88 767 60 Q751 33 723 16 Q696 0 663 0 L178 0 L178 0 M149 82 L149 82 L663 82 Q679 82 690 93 Q702 105 702 121 L702 538 L149 82 M139 181 L139 181 L691 637 L178 637 Q162 637 150 625 Q139 614 139 598 L139 181 Z" transform="translate(409.25,70.0) scale(0.05104,-0.05104)"/>
    <path d="M54 0 L54 0 L54 82 L136 82 L136 0 L54 0 Z" transform="translate(459.81,70.0) scale(0.05104,-0.05104)"/>
    <path d="M219 0 L219 0 L219 628 L108 495 L1 495 L190 720 L302 720 L302 0 L219 0 Z" transform="translate(478.73,70.0) scale(0.05104,-0.05104)"/>
  </g>
</svg>
